<?xml version="1.0" encoding="UTF-8" standalone="no"?>
<!DOCTYPE svg PUBLIC "-//W3C//DTD SVG 1.1//EN" "http://www.w3.org/Graphics/SVG/1.1/DTD/svg11.dtd">
<svg version="1.1" xmlns="http://www.w3.org/2000/svg" xmlns:xlink="http://www.w3.org/1999/xlink" preserveAspectRatio="xMidYMid meet" viewBox="0 0 300 100">
	<defs>
		<linearGradient id="gradientcTQkoRQOc" gradientUnits="userSpaceOnUse" x1="37.5" y1="0" x2="37.5" y2="100">
			<stop style="stop-color: #9c2c08;stop-opacity: 1" offset="0%"></stop>
			<stop style="stop-color: #9a2b07;stop-opacity: 1" offset="10.190599022004873%"></stop>
			<stop style="stop-color: #eec0a0;stop-opacity: 1" offset="19.97055012224949%"></stop>
			<stop style="stop-color: #eec0a0;stop-opacity: 1" offset="29.99500000000016%"></stop>
			<stop style="stop-color: #dd5e02;stop-opacity: 1" offset="40.26394865525697%"></stop>
			<stop style="stop-color: #dd5e02;stop-opacity: 1" offset="69.84830073349683%"></stop>
			<stop style="stop-color: #8e2901;stop-opacity: 1" offset="80.36174816625973%"></stop>
			<stop style="stop-color: #8e2901;stop-opacity: 1" offset="100%"></stop>
		</linearGradient>
		<linearGradient id="gradienta1gzUaUtKu" gradientUnits="userSpaceOnUse" x1="150" y1="-0.01" x2="150" y2="87.5">
			<stop style="stop-color: #6f6f6d;stop-opacity: 1" offset="0%"></stop>
			<stop style="stop-color: #6f6f6d;stop-opacity: 1" offset="11.404450737972443%"></stop>
			<stop style="stop-color: #d6d6d6;stop-opacity: 1" offset="23.14596209190362%"></stop>
			<stop style="stop-color: #d6d6d6;stop-opacity: 1" offset="35.43448793577746%"></stop>
			<stop style="stop-color: #8f8f8f;stop-opacity: 1" offset="46.34937728135747%"></stop>
			<stop style="stop-color: #626262;stop-opacity: 1" offset="63.62193204747405%"></stop>
			<stop style="stop-color: #696969;stop-opacity: 1" offset="79.58241279931492%"></stop>
			<stop style="stop-color: #3b3b3b;stop-opacity: 1" offset="91.73069956603315%"></stop>
			<stop style="stop-color: #3b3b3b;stop-opacity: 1" offset="100%"></stop>
		</linearGradient>
		<path d="M6.25 68.75L6.25 62.5L0 62.5L0 37.5L6.25 37.5L6.25 31.25L12.5 31.25L12.5 68.75L6.25 68.75Z" id="a8vQ0cHNf"></path>
		<path d="M31.25 100L31.25 93.75L25 93.75L25 6.25L31.25 6.25L31.25 0L62.5 0L62.5 100L31.25 100ZM18.75 87.49L18.75 12.49L25 12.49L25 87.49L18.75 87.49ZM12.5 81.24L12.5 18.74L18.75 18.74L18.75 81.24L12.5 81.24Z" id="ixP9Znpnp"></path>
		<path d="M62.5 6.25L75 6.25L75 87.5L62.5 87.5L62.5 6.25Z" id="f12vB37OlK"></path>
		<path d="M150 87.5L150 0L225 0L225 87.5L150 87.5ZM75 87.49L75 -0.01L150 -0.01L150 87.49L75 87.49Z" id="b3fxmzoLU8"></path>
		<path d="M225 6.25L237.5 6.25L237.5 87.5L225 87.5L225 6.25Z" id="a1Yq1NYyb1"></path>
		<path d="M275 6.25L275 93.75L268.75 93.75L268.75 100L237.5 100L237.5 0L268.75 0L268.75 6.25L275 6.25ZM287.5 18.74L287.5 81.25L281.25 81.25L281.25 87.5L275 87.5L275 12.5L281.25 12.5L281.25 18.74L287.5 18.74Z" id="f9hvGdP3Mn"></path>
		<path d="M287.5 31.25L293.75 31.25L293.75 37.5L300 37.5L300 62.5L293.75 62.5L293.75 68.75L287.5 68.75L287.5 31.25Z" id="b4gqK5DPC3"></path>
	</defs>
	<g visibility="inherit">
		<g visibility="inherit">
			<g visibility="inherit">
				<use xlink:href="#a8vQ0cHNf" opacity="1" fill="#474f50" fill-opacity="1"></use>
			</g>
			<g visibility="inherit">
				<use xlink:href="#ixP9Znpnp" opacity="1" fill="url(#gradientcTQkoRQOc)"></use>
			</g>
			<g visibility="inherit">
				<use xlink:href="#f12vB37OlK" opacity="1" fill="#222222" fill-opacity="1"></use>
			</g>
			<g visibility="inherit">
				<use xlink:href="#b3fxmzoLU8" opacity="1" fill="url(#gradienta1gzUaUtKu)"></use>
			</g>
			<g visibility="inherit">
				<use xlink:href="#a1Yq1NYyb1" opacity="1" fill="#222222" fill-opacity="1"></use>
			</g>
			<g visibility="inherit">
				<use xlink:href="#f9hvGdP3Mn" opacity="1" fill="url(#gradientcTQkoRQOc)"></use>
			</g>
			<g visibility="inherit">
				<use xlink:href="#b4gqK5DPC3" opacity="1" fill="#474f50" fill-opacity="1"></use>
			</g>
		</g>
	</g>
</svg>
